<svg xmlns="http://www.w3.org/2000/svg" xmlns:xlink="http://www.w3.org/1999/xlink" width="26.23" height="24" viewBox="0 0 26.23 24"><defs><path id="mxm1a" d="M332 38a3 3 0 1 1 0 6 3 3 0 0 1 0-6m10 0a3 3 0 1 1 0 6 3 3 0 0 1 0-6m-16.92-18h3.66c.09 0 .17 0 .25.02a2 2 0 0 1 2.08 1.68l.21 1.35c.19-.03.38-.05.57-.05h14.46a3 3 0 0 1 3 3v7a3 3 0 0 1-3 3h-14.46a3 3 0 0 1-2.99-2.68L327.38 24h-2.3a2 2 0 1 1 0-4z"/></defs><g><g transform="translate(-323.08 -20)"><use fill="#ffd72f" xlink:href="#mxm1a"/></g></g></svg>