<svg xmlns="http://www.w3.org/2000/svg" xmlns:xlink="http://www.w3.org/1999/xlink" width="26.23" height="24" viewBox="0 0 26.23 24"><defs><path id="3atia" d="M361.92 1671a3 3 0 1 1 0 6 3 3 0 0 1 0-6m10 0a3 3 0 1 1 0 6 3 3 0 0 1 0-6M355 1653h3.66c.09 0 .17 0 .25.02a2 2 0 0 1 2.08 1.68l.21 1.35c.19-.03.38-.05.57-.05h14.46a3 3 0 0 1 3 3v7a3 3 0 0 1-3 3h-14.46a3 3 0 0 1-2.99-2.68l-1.48-9.32H355a2 2 0 1 1 0-4z"/></defs><g><g transform="translate(-353 -1653)"><use fill="#fff" xlink:href="#3atia"/></g></g></svg>