<svg xmlns="http://www.w3.org/2000/svg" xmlns:xlink="http://www.w3.org/1999/xlink" width="106.8" height="40.88" viewBox="0 0 106.8 40.88"><defs><path id="pygha" d="M41.12 33.53c.91 2.86 4.29 12.25 10.8 16.8 0 0 .98.58.86 1.14 0 0 .1 1.1-1.3.92 0 0-3.79.11-6.25-1.61 0 0-3.83-3.6-5.67-7.8 0 0-3.2-6.75-4.01-9.45l-.12-.44-.18-1.44s-.37-.95 1.15-1l2.97-.07s2.21.02 3.9-1.54c0 0 3.09-3.03 3.91-8.26 0 0 .51-4.12-4.4-4.2 0 0-5.26-.48-6.22 4.76l-2.93 12.19L31.34 43s-.61 2.62-2.48 2.53l-4.14.11s-1.84-1.46.49-2.34c0 0 1.19.38 1.78-3.07l1.6-6.7 2.62-10.95s1.14-3.8-.72-3.4c0 0-1.03-.05-.85-.8 0 0-.02-.9 1-1.2l9.95-2.53s6.06-.85 8.3.05c0 0 4.03 1.2 3.87 5.66 0 0 .34 4.92-3.5 8.45 0 0-4.31 3.95-8.39 3.85l.25.87"/><path id="pyghb" d="M84.85 42.26s-2.7 2.4-4.02-.44c0 0-1.7-3.66 2.7-12.35 0 0 3.84-5.99 5.79-.76 0 0 .67 7.31-4.47 13.55zm-28.3-2.13s-2.7 2.61-3.9-.78c0 0-.42-2.93 1.5-8.13 0 0 2.81-8.7 5.98-6.46 0 0 1.54.58.73 6.42 0 0-1.13 6.67-4.31 8.95zm17.94 3.58c-1.43 7.88-2.1 7.72-2.1 7.72-2.46.75-2.03 1.7-2.03 1.7.1 1.1 3 .74 3 .74 4.13-.1 4.14-2.38 4.14-2.38.86-1.66 2.08-7.31 2.08-7.31 2.99 3.07 6.86.57 6.86.57.53-.32 1.03-.67 1.5-1.04 3.66-2.83 5.41-6.74 6.24-10.15.99-4.05.66-7.4.66-7.4-.11-4.1-4.18-3.8-4.18-3.8-3.31.09-5.71 2.97-5.71 2.97-2.75 3.23-.87-1.07-.87-1.07.78-2.01-1.28-1.61-1.28-1.61-1.94-.1-6.35 2.97-6.35 2.97-1.88 1.63.47 1.77.47 1.77 1.92-.71.92 3.48.1 6.17-.37 1.22-.7 2.15-.7 2.15-1.53 4.69-1.88 4.56-1.88 4.56-2.97 2.48-2.08-2.82-2.08-2.82l.94-3.89 4.52-18.74c.69-2.62-2.25-1.58-2.25-1.58-3.36 1.12-5.71 3.38-5.71 3.38-1.3.85.18 1.78.18 1.78 2.13-.61 1.25 2.57 1.25 2.57l-3.07 12.6-1.4 5.74c-2.66 3.91-2.8-.82-2.8-.82l1.21-4.93 2.46-10.1c.1-1.51-1.8-.43-1.8-.43-1.56.93-3.45.37-3.45.37-2.53-1.8-3.82-1-3.82-1-3.8.03-8.04 6.79-8.04 6.79a13.9 13.9 0 0 0-2.15 4.37 25.15 25.15 0 0 0-1.04 5.31c0 2.29.31 3.82.74 4.84.87 2.1 2.22 2.07 2.22 2.07 2.7.35 4.83-.83 6.28-2.07 1.4-1.2 2.15-2.47 2.15-2.47-.1 1.05 0 1.86.24 2.47a3.06 3.06 0 0 0 2.71 2.04c1.58-.04 2.89-1.07 3.78-2.04.79-.86 1.24-1.65 1.24-1.65.05.66.16 1.2.31 1.65.74 2.23 2.42 2.04 2.42 2.04 1.7-.04 3.08-1.08 4.01-2.04a9.54 9.54 0 0 0 1.27-1.6l-.27 1.6z"/><path id="pyghc" d="M120.73 30.18a15.3 15.3 0 0 0 4.58 1.67s3.9 1.13 3.59 4.9c0 0 .25 7-11.72 8.61 0 0-4.2.25-5.3-2.11 0 0-5.58 5.7-7.14-.98 0 0-.09-3.08 1.54-6.9 0 0 .92-3.1 1.57-5.19l.07-.26s1.3-3.33-1.4-3.25c0 0-1.74-.5-4.67 3.48l-.03.03c-.2.24-1.42 1.88-2.67 7.38 0 0-1.1 5.3-1.36 5.79 0 0-.57 1.72-2.16 1.77l-3.52.02s-1.67-.43-.46-1.5c0 0 1.24-.3 1.73-2.37l2.66-11.09 1.87-7.8s.9-2.9-1.1-2.71c0 0-2.08-.29-.13-1.85 0 0 3.46-2.42 5.38-2.82 0 0 2.8-1.1 2.32 1.24 0 0-3.21 11.6-2.2 10.47 0 0 3.13-4.4 8.37-4.53 0 0 3.8.23 3.42 4.02 0 0-.22 1.43-.84 3.98-.54 2.2-1.37 5.24-2.61 8.92 0 0-.58 1.73.88 1.69 0 0 1.03.04 1.95-1.83 0 0 2.18-3.55 2.88-.83 0 0-.41 2.75-.07 2.74 0 0-.24 1.03 3.08 1.63 0 0 3.87-.24 4.41-3.07 0 0 .46-3.57-3.9-3.86 0 0-5.76-1.67-5.47-5.39v-.09s-.75-4.91 6.85-7.24c0 0 5.76-1.45 8.52.8 0 0 2.37 1.17.38 3.62 0 0-1.26 2.03-2.45 1.92 0 0-1.37.17-1.29-1.75 0 0 .77-2.42-3.32-2.79 0 0-4.13.4-3.98 3.26 0 0-.19 1.1 1.74 2.27"/></defs><g><g transform="translate(-24.03 -13.04)"><use fill="#fff" xlink:href="#pygha"/></g><g transform="translate(-24.03 -13.04)"><use fill="#fff" xlink:href="#pyghb"/></g><g transform="translate(-24.03 -13.04)"><use fill="#fff" xlink:href="#pyghc"/></g></g></svg>