<svg xmlns="http://www.w3.org/2000/svg" xmlns:xlink="http://www.w3.org/1999/xlink" width="66.34" height="75"><defs><path id="a" d="M295 379h16a4 4 0 1 1 0 8h-5v4a3 3 0 0 1-6 0v-4h-5a4 4 0 1 1 0-8zm-13.85 16.9l2.53 2.54a3 3 0 1 1-4.24 4.24l-2.54-2.54-1.41 1.42a4 4 0 1 1-5.66-5.66l7.07-7.07a4 4 0 1 1 5.66 5.66z"/><path id="b" d="M303 454a32 32 0 1 1 0-64 32 32 0 0 1 0 64zm0-6a26 26 0 1 0 0-52 26 26 0 0 0 0 52z"/></defs><use fill="#64b5cc" xlink:href="#a" transform="translate(-268.66 -379)"/><use fill="#64b5cc" xlink:href="#b" transform="translate(-268.66 -379)"/></svg>