<svg xmlns="http://www.w3.org/2000/svg" xmlns:xlink="http://www.w3.org/1999/xlink" width="32" height="27.61"><defs><path id="a" d="M577.1 512.88c0-1.6 1.3-2.9 2.9-2.9 1.6 0 2.9 1.3 2.9 2.9 0 1.6-1.3 2.9-2.9 2.9-1.6 0-2.9-1.3-2.9-2.9zm2.9-15.13l4.36 6.4h-8.72zm1.2-3.14c-.27-.4-.73-.61-1.2-.61s-.93.2-1.2.63l-6.38 9.52h-6.97a1.46 1.46 0 0 0-1.4 1.85l3.7 13.48a2.9 2.9 0 0 0 2.8 2.13h18.9c1.34 0 2.46-.9 2.81-2.13l3.7-13.48.04-.4c0-.8-.65-1.45-1.45-1.45h-6.97z"/></defs><use fill="#ffe05e" xlink:href="#a" transform="translate(-564 -494)"/></svg>