<svg xmlns="http://www.w3.org/2000/svg" xmlns:xlink="http://www.w3.org/1999/xlink" width="28" height="28"><defs><path id="a" d="M808 494a14 14 0 1 0 0 28 14 14 0 0 0 0-28m1.32 20.87v.75c0 1.84-2.8 1.85-2.8 0v-.76a10.7 10.7 0 0 1-2.8-.77c-1.63-.65-1.25-3.18.58-3.18.14 0 2.07.75 3.63.75 2 0 2-.7 2-1 0-.5-1.38-.72-2.19-.92-1.97-.5-4.94-1.27-4.94-4.32 0-1.77 1.18-3.66 3.72-4.21v-.83c0-1.84 2.8-1.85 2.8 0v.73c.86.09 1.68.27 2.43.54 1.71.62 1.27 3.2-.52 3.2-.03 0-1.72-.53-2.98-.53-.95 0-2.06.26-2.06.98 0 .49.68.73 2.3 1.12 1.92.46 4.83 1.16 4.83 4.34 0 2.14-1.6 3.7-4 4.1"/></defs><use fill="#7ce086" xlink:href="#a" transform="translate(-794 -494)"/></svg>