<svg xmlns="http://www.w3.org/2000/svg" xmlns:xlink="http://www.w3.org/1999/xlink" width="29" height="26"><defs><path id="a" d="M108.73 502.45c.35.4.36 1.06.03 1.47L95.1 520.69c-.17.2-.4.31-.61.31a.78.78 0 0 1-.6-.3l-13.66-16.78a1.17 1.17 0 0 1 .03-1.47l5.99-6.73c.35-.4 1.07-.72 1.6-.72h13.42c.53 0 1.24.33 1.59.72zm-24.2 2.16l6.32 7.78-1.8-7.78zm9.07-6.73l-1.38 3.85h4.55l-1.37-3.85zm-1.6 6.73l2.5 10.76L97 504.6zm6.15 7.78l6.33-7.78h-4.52zm2.78-14.5h-2.47l1.37 3.84h4.46zm-16.16 3.84h4.4l1.37-3.85h-2.36z"/></defs><use fill="#77dcfa" xlink:href="#a" transform="translate(-80 -495)"/></svg>