<svg xmlns="http://www.w3.org/2000/svg" xmlns:xlink="http://www.w3.org/1999/xlink" width="34.5" height="30.93" viewBox="0 0 34.5 30.93"><defs><path id="7ye3a" d="M838.8 320.96c-1.63-1.67-3.88-2.5-6.75-2.5-.8 0-1.61.14-2.44.43-.83.3-1.6.68-2.3 1.17a18.08 18.08 0 0 0-3.3 2.75 18.1 18.1 0 0 0-3.31-2.75 9.68 9.68 0 0 0-2.31-1.17 7.37 7.37 0 0 0-2.44-.43c-2.87 0-5.12.83-6.75 2.5-1.63 1.66-2.45 3.97-2.45 6.92 0 .9.15 1.83.45 2.78.3.96.65 1.77 1.03 2.44a20.62 20.62 0 0 0 2.38 3.28c.22.24.4.42.53.52l12.01 12.13c.23.24.52.36.85.36.33 0 .62-.12.85-.36l12-12.09c2.93-3.07 4.4-6.09 4.4-9.06 0-2.95-.82-5.26-2.45-6.92z"/></defs><g><g transform="translate(-806.75 -318.46)"><use fill="#f15539" xlink:href="#7ye3a"/></g></g></svg>