<svg xmlns="http://www.w3.org/2000/svg" xmlns:xlink="http://www.w3.org/1999/xlink" width="24.8" height="25.02"><defs><path id="a" d="M190.4 42.95c0 .58-.46 1.04-1.04 1.04h-4.16a2.08 2.08 0 0 1-2.08-2.09v-9l-.68.03a2.08 2.08 0 0 1-1.54-3.59l10.17-9.77c.8-.76 2.05-.77 2.86-.02l10.46 9.74a2.08 2.08 0 0 1-1.42 3.6h-1.1l.02 9.03c0 1.15-.94 2.09-2.09 2.09h-4.19c-.57 0-1.04-.47-1.04-1.05V36.7a2.08 2.08 0 1 0-4.17 0z"/></defs><use fill="#fff" xlink:href="#a" transform="translate(-180.26 -18.98)"/></svg>