<svg xmlns="http://www.w3.org/2000/svg" xmlns:xlink="http://www.w3.org/1999/xlink" width="8.67" height="19.4" viewBox="0 0 8.67 19.4"><defs><path id="qxvla" d="M882.76 506.3c0-.57-.11-1.02-.34-1.34a3.27 3.27 0 0 0-1.15-.92 9.84 9.84 0 0 1-2.3-1.33 4.11 4.11 0 0 1-1.5-3.42c0-1.13.32-2.06.95-2.8a3.78 3.78 0 0 1 2.48-1.3V493h1.54v2.22c1.02.2 1.81.72 2.38 1.55.57.84.85 1.9.85 3.19h-2.89c0-.82-.11-1.43-.35-1.83-.23-.4-.54-.6-.91-.6a.96.96 0 0 0-.85.47c-.2.31-.3.75-.3 1.3 0 .49.1.89.31 1.2.21.33.61.66 1.2 1 1.1.52 1.88 1 2.36 1.42a4.08 4.08 0 0 1 1.41 3.35 4.2 4.2 0 0 1-.91 2.8 3.82 3.82 0 0 1-2.53 1.3v2.03h-1.53v-2.03a4 4 0 0 1-2.72-1.5 5.33 5.33 0 0 1-.96-3.33h2.89c0 .8.13 1.42.38 1.85.26.43.65.65 1.17.65.41 0 .74-.16.97-.47.24-.3.35-.73.35-1.28z"/></defs><g><g opacity=".7" transform="translate(-877 -493)"><use fill="#fff" xlink:href="#qxvla"/><use fill="#fff" fill-opacity="0" stroke="#fff" stroke-miterlimit="50" stroke-width=".5" xlink:href="#qxvla"/></g></g></svg>