<svg xmlns="http://www.w3.org/2000/svg" xmlns:xlink="http://www.w3.org/1999/xlink" width="29.02" height="28.99" viewBox="0 0 29.02 28.99"><defs><path id="mgksa" d="M327.02 495.3c-2.74 0-5.35.6-7.64 1.68l-.01-.15a4.83 4.83 0 0 1 9.4-1.48c-.56-.04-1.14-.05-1.75-.05zm15.57 12.87l-1.34 5.15-2.16-.69a11.64 11.64 0 0 1-3.82 3.79l.88 4.57h-5.37l-.95-2.54a16.54 16.54 0 0 1-6.6-.2l-1.04 2.74h-5.37l1.02-5.22c-2.6-1.96-4.24-4.73-4.24-7.81 0-1.24.28-2.43.76-3.54l.38-.64-1.17-4.05.97-.54 2.35 1.77a14.9 14.9 0 0 1 10.13-3.74c2.86 0 4.66.33 6.84 1.54 1.35-1.22 4.02-1.22 5.51-.45l-1.65 3.17a9.44 9.44 0 0 1 2.7 6.17zm-7.73.59c1.07 0 1.93-1.08 1.93-2.42 0-1.33-.86-2.41-1.93-2.41-1.06 0-1.93 1.08-1.93 2.41 0 1.34.87 2.42 1.93 2.42z"/></defs><g><g transform="translate(-313.57 -492)"><use fill="#ff8d9c" xlink:href="#mgksa"/></g></g></svg>